<svg width="1200" height="1200" viewBox="0 0 1200 1200" fill="none" xmlns="http://www.w3.org/2000/svg">
<rect width="1200" height="1200" fill="#362E77"/>
<path d="M488.051 244H392.004C387.031 244 383 248.029 383 253V946C383 950.971 387.031 955 392.004 955H488.051C493.024 955 497.056 950.971 497.056 946V253C497.056 248.029 493.024 244 488.051 244Z" fill="white"/>
<path d="M510.003 672.024C506.947 668.361 507.28 662.952 510.762 659.692L756.431 429.63C758.1 428.067 760.301 427.198 762.588 427.198H879.977C888.074 427.198 892.057 437.046 886.235 442.67L657.785 663.312C654.408 666.573 654.106 671.88 657.089 675.504L875.126 940.28C879.961 946.152 875.782 955 868.174 955H741.871C739.119 955 736.518 953.742 734.81 951.586L575.578 750.507C575.567 750.492 575.544 750.49 575.531 750.504C575.518 750.517 575.496 750.516 575.484 750.502L510.003 672.024Z" fill="white"/>
</svg>
